{"title":"The.Last.Showing.2014.720p.H264.AAC.MP4.Raven","uid":10909649,"size":396903913,"categoryP":"video","categoryS":"hd___movies","magnet":"?xt=urn:btih:bdd69f6fa5d1e6d60e422b0d1ea85dd0b38b2f8e&amp;dn=The.Last.Showing.2014.720p.H264.AAC.MP4.Raven&amp;tr=udp%3A%2F%2Ftracker.openbittorrent.com%3A80&amp;tr=udp%3A%2F%2Fopen.demonii.com%3A1337&amp;tr=udp%3A%2F%2Ftracker.coppersurfer.tk%3A6969&amp;tr=udp%3A%2F%2Fexodus.desync.com%3A6969","seeders":1,"leechers":0,"uploader":"Raven1969","files":-1,"time":1409260599,"description":"The.Last.Showing.2014.720p.H264.AAC.MP4.Raven.\n\n\n\n\nIMDB:\n\n &lt;a href=&quot;\nhttp://www.imdb.com/title/tt2179239&quot; rel=&quot;nofollow&quot; target=&quot;_NEW&quot;&gt;\nhttp://www.imdb.com/title/tt2179239&lt;/a&gt;\n\n\n\n\nIMDB Rating 6.6\n\n\n\nStoryline\n\nA couple trapped in a cinema are manipulated into becoming unwilling actors in a film being captured by CCTV cameras.\n\n\n\nVideo\n\n\nFormat                                   : AVC\nFormat/Info                              : Advanced Video Codec\nFormat profile                           : &lt;a class=&quot;__cf_email__&quot; href=&quot;/cdn-cgi/l/email-protection&quot; data-cfemail=&quot;e8a5898186a8a4dcc6d9&quot;&gt;[email&amp;#160;protected]&lt;/a&gt;&lt;script cf-hash='f9e31' type=&quot;text/javascript&quot;&gt;\n/* &lt;![CDATA[ */!function(){try{var t=&quot;currentScript&quot;in document?document.currentScript:function(){for(var t=document.getElementsByTagName(&quot;script&quot;),e=t.length;e--;)if(t[e].getAttribute(&quot;cf-hash&quot;))return t[e]}();if(t&amp;&amp;t.previousSibling){var e,r,n,i,c=t.previousSibling,a=c.getAttribute(&quot;data-cfemail&quot;);if(a){for(e=&quot;&quot;,r=parseInt(a.substr(0,2),16),n=2;a.length-n;n+=2)i=parseInt(a.substr(n,2),16)^r,e+=String.fromCharCode(i);e=document.createTextNode(e),c.parentNode.replaceChild(e,c)}}}catch(u){}}();/* ]]&gt; */&lt;/script&gt;\nFormat settings, CABAC                   : Yes\nFormat settings, ReFrames                : 4 frames\nCodec ID                                 : avc1\nCodec ID/Info                            : Advanced Video Coding\nDuration                                 : 1h 25mn\nBit rate                                 : 521 Kbps\nMaximum bit rate                         : 4 495 Kbps\nWidth                                    : 960 pixels\nHeight                                   : 528 pixels\nDisplay aspect ratio                     : 2.40:1\nFrame rate mode                          : Constant\nFrame rate                               : 29.970 fps\nColor space                              : YUV\nChroma subsampling                       : 4:2:0\nBit depth                                : 8 bits\nScan type                                : Progressive\nBits/(Pixel*Frame)                       : 0.034\nStream size                              : 317 MiB (84%)\nWriting library                          : x264 core 130\nLanguage                                 : English\n\n\nAudio\n\n\nFormat                                   : AAC\nFormat/Info                              : Advanced Audio Codec\nFormat profile                           : LC\nCodec ID                                 : 40\nDuration                                 : 1h 25mn\nBit rate mode                            : Variable\nBit rate                                 : 96.0 Kbps\nMaximum bit rate                         : 151 Kbps\nChannel(s)                               : 2 channels\nChannel positions                        : Front: L R\nSampling rate                            : 48.0 KHz\nCompression mode                         : Lossy\nStream size                              : 58.5 MiB (15%)\nLanguage                                 : English\n\n\nPlease seed for as long as possible to keep the torrent alive.\n","torrent":{"xt":"urn:btih:bdd69f6fa5d1e6d60e422b0d1ea85dd0b38b2f8e","amp;dn":"The.Last.Showing.2014.720p.H264.AAC.MP4.Raven","amp;tr":["udp%3A%2F%2Ftracker.openbittorrent.com%3A80","udp%3A%2F%2Fopen.demonii.com%3A1337","udp%3A%2F%2Ftracker.coppersurfer.tk%3A6969","udp%3A%2F%2Fexodus.desync.com%3A6969"],"infoHash":"bdd69f6fa5d1e6d60e422b0d1ea85dd0b38b2f8e","infoHashBuffer":{"type":"Buffer","data":[189,214,159,111,165,209,230,214,14,66,43,13,30,168,93,208,179,139,47,142]},"announce":[],"urlList":[]}}